<svg xmlns="http://www.w3.org/2000/svg" xmlns:xlink="http://www.w3.org/1999/xlink" width="500" zoomAndPan="magnify" viewBox="0 0 375 374.999991" height="500" preserveAspectRatio="xMidYMid meet" version="1.0"><defs><g/></defs><rect x="-37.5" width="450" fill="#ffffff" y="-37.499999" height="449.999989" fill-opacity="1"/><rect x="-37.5" width="450" fill="#ffffff" y="-37.499999" height="449.999989" fill-opacity="1"/><rect x="-37.5" width="450" fill="#ffffff" y="-37.499999" height="449.999989" fill-opacity="1"/><g fill="#000000" fill-opacity="1"><g transform="translate(101.594749, 232.924629)"><g><path d="M 1.355469 0 L 4.070312 0 L 4.070312 -0.253906 C 3.21875 -0.4375 2.691406 -0.941406 2.691406 -3.335938 L 2.691406 -14.257812 L 8.714844 -4.367188 L 9.035156 -4.367188 L 15.199219 -14.394531 L 15.199219 -2.921875 C 15.199219 -0.804688 14.921875 -0.414062 14.28125 -0.253906 L 14.28125 0 L 17.40625 0 L 17.40625 -0.253906 C 16.761719 -0.414062 16.488281 -0.804688 16.488281 -2.921875 L 16.488281 -12.761719 C 16.488281 -15.152344 16.96875 -15.660156 17.730469 -15.84375 L 17.730469 -16.097656 L 15.84375 -16.097656 L 15.222656 -15.085938 L 15.199219 -15.039062 L 9.449219 -5.679688 L 3.082031 -16.097656 L 1.035156 -16.097656 L 1.035156 -15.84375 C 1.792969 -15.660156 2.277344 -15.152344 2.277344 -12.761719 L 2.277344 -2.921875 C 2.277344 -0.804688 2 -0.414062 1.355469 -0.253906 Z M 1.355469 0 "/></g></g></g><g fill="#000000" fill-opacity="1"><g transform="translate(128.636379, 232.924629)"><g><path d="M 1.265625 0 L 12.28125 0 L 12.484375 -2.738281 L 12.28125 -2.78125 C 11.519531 -0.851562 10.300781 -0.300781 8.230469 -0.300781 L 4.390625 -0.300781 C 3.792969 -0.300781 3.472656 -0.621094 3.472656 -1.21875 L 3.472656 -8.417969 L 7.242188 -8.417969 C 9.636719 -8.417969 10.140625 -7.886719 10.324219 -7.035156 L 10.578125 -7.035156 L 10.578125 -10.09375 L 10.324219 -10.09375 C 10.140625 -9.242188 9.636719 -8.714844 7.242188 -8.714844 L 3.472656 -8.714844 L 3.472656 -15.796875 L 7.613281 -15.796875 C 9.679688 -15.796875 10.945312 -15.109375 11.660156 -13.3125 L 11.867188 -13.359375 L 11.589844 -16.097656 L 1.265625 -16.097656 L 1.265625 -15.84375 C 1.910156 -15.683594 2.183594 -15.292969 2.183594 -13.175781 L 2.183594 -2.921875 C 2.183594 -0.804688 1.910156 -0.414062 1.265625 -0.253906 Z M 1.265625 0 "/></g></g></g><g fill="#000000" fill-opacity="1"><g transform="translate(150.0909, 232.924629)"><g><path d="M 1.355469 0 L 4.070312 0 L 4.070312 -0.253906 C 3.21875 -0.4375 2.691406 -0.941406 2.691406 -3.335938 L 2.691406 -14.257812 L 8.714844 -4.367188 L 9.035156 -4.367188 L 15.199219 -14.394531 L 15.199219 -2.921875 C 15.199219 -0.804688 14.921875 -0.414062 14.28125 -0.253906 L 14.28125 0 L 17.40625 0 L 17.40625 -0.253906 C 16.761719 -0.414062 16.488281 -0.804688 16.488281 -2.921875 L 16.488281 -12.761719 C 16.488281 -15.152344 16.96875 -15.660156 17.730469 -15.84375 L 17.730469 -16.097656 L 15.84375 -16.097656 L 15.222656 -15.085938 L 15.199219 -15.039062 L 9.449219 -5.679688 L 3.082031 -16.097656 L 1.035156 -16.097656 L 1.035156 -15.84375 C 1.792969 -15.660156 2.277344 -15.152344 2.277344 -12.761719 L 2.277344 -2.921875 C 2.277344 -0.804688 2 -0.414062 1.355469 -0.253906 Z M 1.355469 0 "/></g></g></g><g fill="#000000" fill-opacity="1"><g transform="translate(177.132526, 232.924629)"><g><path d="M 9.265625 0.230469 C 13.128906 0.230469 17.359375 -2.207031 17.359375 -7.980469 C 17.359375 -13.613281 13.152344 -16.28125 9.265625 -16.28125 C 4.390625 -16.28125 1.148438 -12.898438 1.148438 -8.023438 C 1.148438 -2.390625 5.359375 0.230469 9.265625 0.230469 Z M 2.390625 -9.265625 C 2.390625 -13.0625 4.714844 -15.84375 8.601562 -15.84375 C 12.898438 -15.84375 16.140625 -11.472656 16.140625 -6.785156 C 16.140625 -2.875 13.726562 -0.207031 9.863281 -0.207031 C 5.542969 -0.207031 2.390625 -4.621094 2.390625 -9.265625 Z M 2.390625 -9.265625 "/></g></g></g><g fill="#000000" fill-opacity="1"><g transform="translate(203.69132, 232.924629)"><g><path d="M 12.992188 0.160156 C 13.5 0.160156 13.957031 0.0703125 14.117188 0 L 14.117188 -0.230469 C 13.980469 -0.207031 13.867188 -0.183594 13.726562 -0.183594 C 12.992188 -0.183594 12.324219 -1.195312 11.359375 -3.632812 C 10.347656 -6.207031 9.980469 -7.980469 6.898438 -8.417969 C 9.84375 -8.714844 11.519531 -10.394531 11.519531 -12.601562 C 11.519531 -14.832031 9.773438 -16.097656 5.496094 -16.097656 L 1.265625 -16.097656 L 1.265625 -15.84375 C 1.910156 -15.683594 2.183594 -15.292969 2.183594 -13.175781 L 2.183594 -2.921875 C 2.183594 -0.804688 1.910156 -0.414062 1.265625 -0.253906 L 1.265625 0 L 4.390625 0 L 4.390625 -0.253906 C 3.75 -0.414062 3.472656 -0.804688 3.472656 -2.921875 L 3.472656 -8.371094 L 5.058594 -8.371094 C 8.625 -8.371094 8.898438 -6.230469 10.1875 -3.265625 C 11.082031 -1.195312 11.335938 0.160156 12.992188 0.160156 Z M 3.472656 -8.691406 L 3.472656 -15.75 C 3.886719 -15.773438 4.253906 -15.796875 4.621094 -15.796875 C 8.625 -15.796875 10.09375 -14.347656 10.09375 -12.09375 C 10.09375 -9.933594 8.578125 -8.691406 5.910156 -8.691406 Z M 3.472656 -8.691406 "/></g></g></g><g fill="#000000" fill-opacity="1"><g transform="translate(225.651673, 232.924629)"><g><path d="M 1.265625 0 L 4.390625 0 L 4.390625 -0.253906 C 3.75 -0.414062 3.472656 -0.804688 3.472656 -2.921875 L 3.472656 -13.175781 C 3.472656 -15.292969 3.75 -15.683594 4.390625 -15.84375 L 4.390625 -16.097656 L 1.265625 -16.097656 L 1.265625 -15.84375 C 1.910156 -15.683594 2.183594 -15.292969 2.183594 -13.175781 L 2.183594 -2.921875 C 2.183594 -0.804688 1.910156 -0.414062 1.265625 -0.253906 Z M 1.265625 0 "/></g></g></g><g fill="#000000" fill-opacity="1"><g transform="translate(239.357802, 232.924629)"><g><path d="M 1.265625 0 L 12.28125 0 L 12.484375 -2.738281 L 12.28125 -2.78125 C 11.519531 -0.851562 10.300781 -0.300781 8.230469 -0.300781 L 4.390625 -0.300781 C 3.792969 -0.300781 3.472656 -0.621094 3.472656 -1.21875 L 3.472656 -8.417969 L 7.242188 -8.417969 C 9.636719 -8.417969 10.140625 -7.886719 10.324219 -7.035156 L 10.578125 -7.035156 L 10.578125 -10.09375 L 10.324219 -10.09375 C 10.140625 -9.242188 9.636719 -8.714844 7.242188 -8.714844 L 3.472656 -8.714844 L 3.472656 -15.796875 L 7.613281 -15.796875 C 9.679688 -15.796875 10.945312 -15.109375 11.660156 -13.3125 L 11.867188 -13.359375 L 11.589844 -16.097656 L 1.265625 -16.097656 L 1.265625 -15.84375 C 1.910156 -15.683594 2.183594 -15.292969 2.183594 -13.175781 L 2.183594 -2.921875 C 2.183594 -0.804688 1.910156 -0.414062 1.265625 -0.253906 Z M 1.265625 0 "/></g></g></g><g fill="#000000" fill-opacity="1"><g transform="translate(260.812326, 232.924629)"><g><path d="M 6.53125 0.230469 C 9.335938 0.230469 11.75 -1.539062 11.75 -4.09375 C 11.75 -6.507812 9.75 -7.519531 7.011719 -8.644531 C 4.898438 -9.519531 2.484375 -10.460938 2.484375 -12.714844 C 2.484375 -14.855469 4.207031 -15.914062 6.09375 -15.914062 C 9.152344 -15.914062 10.394531 -14.324219 11.152344 -12.738281 L 11.335938 -12.785156 L 11.246094 -15.109375 C 10.667969 -15.476562 9.222656 -16.257812 6.691406 -16.257812 C 3.5625 -16.257812 1.425781 -14.625 1.425781 -12.09375 C 1.425781 -9.910156 2.851562 -8.785156 5.957031 -7.566406 C 8.003906 -6.761719 10.648438 -5.679688 10.648438 -3.335938 C 10.648438 -1.496094 8.945312 -0.113281 6.851562 -0.113281 C 3.472656 -0.113281 2.046875 -2.160156 1.265625 -4.367188 L 1.035156 -4.347656 L 1.195312 -1.402344 C 2.160156 -0.710938 4.070312 0.230469 6.53125 0.230469 Z M 6.53125 0.230469 "/></g></g></g></svg>