<svg xmlns="http://www.w3.org/2000/svg" xmlns:xlink="http://www.w3.org/1999/xlink" width="500" zoomAndPan="magnify" viewBox="0 0 375 374.999991" height="500" preserveAspectRatio="xMidYMid meet" version="1.0"><defs><g/><clipPath id="6c3f64a946"><path d="M 152.554688 96.027344 L 240.304688 96.027344 L 240.304688 189 L 152.554688 189 Z M 152.554688 96.027344 " clip-rule="nonzero"/></clipPath><clipPath id="c1d083a866"><path d="M 144.410156 106.628906 L 230.660156 106.628906 L 230.660156 192.878906 L 144.410156 192.878906 Z M 144.410156 106.628906 " clip-rule="nonzero"/></clipPath></defs><rect x="-37.5" width="450" fill="#ffffff" y="-37.499999" height="449.999989" fill-opacity="1"/><rect x="-37.5" width="450" fill="#ffffff" y="-37.499999" height="449.999989" fill-opacity="1"/><rect x="-37.5" width="450" fill="#ffffff" y="-37.499999" height="449.999989" fill-opacity="1"/><g clip-path="url(#6c3f64a946)"><path fill="#f1e9e4" d="M 179.070312 183.152344 C 178.863281 182.996094 178.597656 182.835938 178.390625 182.679688 Z M 191.5 188.921875 C 191.027344 188.871094 190.558594 188.816406 190.085938 188.765625 C 189.613281 188.710938 189.140625 188.660156 188.667969 188.554688 C 187.828125 188.398438 186.992188 188.242188 186.152344 188.082031 C 185.730469 187.976562 185.3125 187.875 184.894531 187.714844 L 184.628906 187.664062 L 184.527344 187.609375 L 184.472656 187.609375 L 184.160156 187.507812 L 183.582031 187.296875 C 183.164062 187.140625 182.742188 186.980469 182.324219 186.824219 C 181.957031 186.667969 181.589844 186.457031 181.222656 186.246094 C 180.433594 185.828125 179.648438 185.304688 178.914062 184.832031 L 178.390625 184.464844 C 177.601562 183.9375 176.816406 183.363281 176.03125 182.785156 C 175.242188 182.207031 174.613281 181.578125 173.933594 181 C 173.25 180.425781 172.464844 179.742188 171.730469 179.113281 C 170.996094 178.484375 170.3125 177.800781 169.578125 177.121094 C 168.84375 176.4375 168.214844 175.757812 167.480469 175.074219 C 166.746094 174.390625 166.066406 173.605469 165.382812 172.871094 L 165.4375 172.925781 C 165.121094 172.558594 164.804688 172.191406 164.4375 171.769531 C 164.070312 171.351562 163.863281 171.035156 163.546875 170.667969 L 161.765625 168.359375 C 161.1875 167.574219 160.558594 166.839844 159.980469 166.050781 C 159.40625 165.265625 158.828125 164.425781 158.304688 163.640625 C 157.203125 162.011719 156.257812 160.28125 155.472656 158.445312 C 155.050781 157.554688 154.738281 156.609375 154.421875 155.667969 C 154.265625 155.246094 154.109375 154.773438 154.003906 154.355469 C 153.898438 153.9375 153.742188 153.410156 153.582031 152.9375 C 153.425781 152.46875 153.375 151.941406 153.320312 151.417969 C 153.269531 150.894531 153.214844 150.472656 153.164062 149.949219 C 153.058594 148.953125 153.007812 148.007812 152.953125 147.011719 C 152.902344 146.015625 152.847656 145.175781 152.796875 144.230469 C 152.742188 143.289062 152.742188 142.34375 152.742188 141.453125 C 152.742188 140.558594 152.902344 139.511719 152.902344 138.515625 C 152.902344 137.519531 153.007812 136.574219 153.109375 135.628906 C 153.375 133.6875 153.582031 131.800781 153.898438 129.859375 C 154.054688 128.914062 154.265625 127.972656 154.527344 127.078125 C 154.789062 126.1875 155.105469 125.296875 155.472656 124.40625 C 155.839844 123.511719 156.152344 122.726562 156.46875 121.886719 C 156.78125 121.046875 157.253906 120.101562 157.675781 119.210938 C 158.09375 118.320312 158.511719 117.53125 158.984375 116.695312 C 159.457031 115.90625 159.980469 115.171875 160.558594 114.4375 C 161.136719 113.652344 161.765625 112.96875 162.394531 112.234375 C 163.023438 111.5 163.707031 110.871094 164.335938 110.136719 C 164.964844 109.402344 165.59375 108.722656 166.273438 108.039062 C 167.007812 107.355469 167.796875 106.78125 168.582031 106.253906 C 169.421875 105.730469 170.261719 105.257812 171.152344 104.839844 C 172.042969 104.417969 172.882812 104 173.773438 103.582031 C 174.667969 103.160156 175.558594 102.792969 176.449219 102.425781 C 177.339844 102.058594 178.179688 101.691406 179.070312 101.324219 C 179.964844 100.957031 180.855469 100.589844 181.796875 100.222656 C 182.742188 99.855469 183.6875 99.4375 184.578125 99.070312 C 185.46875 98.703125 186.363281 98.335938 187.253906 98.019531 C 188.144531 97.707031 189.140625 97.285156 190.085938 96.972656 C 191.027344 96.65625 192.027344 96.394531 193.023438 96.238281 C 193.492188 96.132812 193.964844 96.078125 194.4375 96.078125 C 194.960938 96.027344 195.433594 96.027344 195.957031 96.027344 C 196.957031 96.027344 197.953125 96.078125 198.949219 96.132812 C 199.945312 96.183594 200.890625 96.339844 201.886719 96.550781 C 202.882812 96.761719 203.824219 96.972656 204.769531 97.234375 C 205.714844 97.496094 206.65625 97.808594 207.550781 98.175781 C 209.386719 98.859375 211.167969 99.644531 212.898438 100.589844 C 214.628906 101.535156 216.253906 102.636719 217.828125 103.84375 C 218.613281 104.472656 219.347656 105.101562 220.082031 105.730469 C 220.816406 106.359375 221.605469 107.042969 222.390625 107.722656 C 223.179688 108.40625 223.859375 108.984375 224.59375 109.613281 C 225.328125 110.191406 226.011719 110.820312 226.640625 111.5 C 227.007812 111.921875 227.320312 112.289062 227.6875 112.707031 C 228.054688 113.125 228.210938 113.441406 228.527344 113.808594 C 229.105469 114.59375 229.679688 115.382812 230.257812 116.167969 C 231.410156 117.691406 232.511719 119.316406 233.457031 120.941406 C 233.929688 121.835938 234.347656 122.671875 234.820312 123.566406 C 235.292969 124.457031 235.660156 125.296875 236.078125 126.136719 C 236.917969 127.8125 237.707031 129.542969 238.28125 131.277344 C 238.441406 131.695312 238.542969 132.167969 238.648438 132.585938 C 238.753906 133.007812 238.859375 133.53125 238.910156 134.003906 C 239.070312 134.949219 239.226562 135.890625 239.332031 136.835938 C 239.539062 138.777344 239.699219 140.664062 239.855469 142.605469 C 240.011719 144.546875 240.117188 146.59375 240.066406 148.53125 C 240.066406 149.476562 239.960938 150.421875 239.855469 151.367188 C 239.75 152.363281 239.59375 153.359375 239.4375 154.304688 C 239.277344 155.246094 239.070312 156.242188 238.804688 157.1875 C 238.542969 158.132812 238.28125 159.074219 237.96875 159.96875 C 237.652344 160.859375 237.339844 161.804688 236.917969 162.695312 C 236.5 163.585938 236.132812 164.480469 235.660156 165.316406 C 234.769531 167.050781 233.71875 168.726562 232.566406 170.25 C 231.9375 171.035156 231.308594 171.769531 230.625 172.503906 C 229.945312 173.1875 229.261719 173.867188 228.527344 174.445312 C 228.160156 174.757812 227.792969 175.023438 227.425781 175.335938 L 226.324219 176.175781 C 225.589844 176.753906 224.855469 177.328125 224.070312 177.90625 C 223.28125 178.484375 222.496094 179.0625 221.65625 179.636719 C 220.816406 180.214844 219.980469 180.738281 219.085938 181.265625 C 218.195312 181.789062 217.410156 182.207031 216.515625 182.628906 C 215.625 183.046875 214.785156 183.46875 213.949219 183.835938 C 213.109375 184.203125 212.058594 184.621094 211.117188 184.9375 C 210.222656 185.25 209.386719 185.566406 208.441406 185.828125 L 207.96875 185.984375 L 207.8125 186.039062 C 207.339844 186.195312 206.867188 186.351562 206.394531 186.507812 C 204.613281 187.140625 202.777344 187.453125 200.941406 187.925781 C 200.257812 188.082031 199.578125 188.242188 198.894531 188.398438 C 198.265625 188.503906 197.636719 188.609375 196.957031 188.660156 C 195.90625 188.765625 194.804688 188.816406 193.757812 188.816406 C 193.074219 189.027344 192.289062 188.972656 191.5 188.921875 Z M 191.5 188.921875 " fill-opacity="1" fill-rule="nonzero"/></g><g clip-path="url(#c1d083a866)"><path fill="#000000" d="M 195.859375 192.050781 C 196.414062 192.050781 196.886719 192.050781 197.4375 191.972656 C 197.992188 191.894531 198.699219 191.8125 199.253906 191.65625 C 199.804688 191.5 200.515625 191.339844 201.148438 191.183594 L 201.070312 191.183594 C 201.777344 191.023438 202.488281 190.789062 203.199219 190.550781 C 203.515625 190.472656 203.832031 190.316406 204.144531 190.234375 L 205.09375 189.839844 C 205.410156 189.683594 205.722656 189.605469 205.960938 189.445312 C 206.277344 189.289062 206.59375 189.132812 206.90625 188.972656 C 207.539062 188.578125 208.25 188.183594 208.878906 187.789062 C 209.511719 187.394531 210.222656 187 210.933594 186.605469 L 211.878906 185.976562 L 212.828125 185.421875 C 213.535156 185.027344 214.246094 184.554688 214.957031 184.003906 C 215.273438 183.765625 215.507812 183.527344 215.824219 183.292969 L 216.613281 182.582031 C 217.167969 182.109375 217.640625 181.632812 218.191406 181.160156 C 218.429688 180.925781 218.664062 180.6875 218.902344 180.449219 C 219.140625 180.214844 219.375 179.898438 219.613281 179.660156 C 220.007812 179.1875 220.324219 178.636719 220.71875 178.164062 C 220.875 177.847656 221.113281 177.453125 221.269531 177.136719 C 221.425781 176.820312 221.664062 176.503906 221.820312 176.191406 C 222.214844 175.558594 222.609375 174.847656 223.085938 174.21875 L 223.558594 173.429688 L 224.109375 172.558594 C 224.347656 172.246094 224.503906 171.929688 224.742188 171.613281 L 225.292969 170.746094 C 225.453125 170.507812 225.53125 170.273438 225.6875 170.035156 C 225.847656 169.796875 225.925781 169.5625 226.003906 169.324219 C 226.242188 168.773438 226.476562 168.21875 226.714844 167.667969 L 226.792969 167.507812 C 226.953125 167.113281 227.109375 166.71875 227.265625 166.324219 C 227.425781 165.929688 227.503906 165.535156 227.660156 165.140625 L 227.976562 164.039062 C 228.054688 163.644531 228.214844 163.25 228.292969 162.855469 C 228.371094 162.460938 228.449219 162.144531 228.53125 161.75 C 228.53125 161.511719 228.609375 161.277344 228.6875 161.039062 C 228.6875 160.960938 228.6875 160.882812 228.765625 160.800781 C 228.84375 160.722656 228.84375 160.644531 228.84375 160.566406 C 228.925781 160.25 229.003906 159.855469 229.003906 159.539062 C 229.003906 159.222656 229.160156 158.988281 229.160156 158.671875 C 229.160156 158.59375 229.160156 158.515625 229.160156 158.433594 L 229.160156 158.515625 C 229.160156 158.515625 229.160156 158.433594 229.160156 158.433594 C 229.160156 158.277344 229.238281 158.121094 229.238281 157.960938 C 229.238281 157.960938 229.238281 157.882812 229.238281 157.882812 C 229.238281 157.882812 229.238281 157.804688 229.238281 157.804688 C 229.238281 157.804688 229.238281 157.722656 229.238281 157.644531 C 229.238281 157.566406 229.238281 157.566406 229.238281 157.488281 L 229.238281 157.566406 C 229.238281 157.488281 229.320312 157.328125 229.320312 157.25 C 229.320312 157.171875 229.398438 157.015625 229.476562 156.933594 C 229.554688 156.699219 229.714844 156.621094 229.949219 156.621094 L 230.027344 156.621094 C 230.027344 156.382812 230.109375 156.226562 230.109375 155.988281 L 230.109375 156.066406 C 230.1875 155.832031 230.1875 155.515625 230.1875 155.199219 C 230.1875 154.882812 230.1875 154.566406 230.1875 154.253906 C 230.1875 153.621094 230.1875 152.988281 230.1875 152.359375 C 230.1875 151.332031 230.1875 150.386719 230.109375 149.359375 C 230.027344 148.335938 229.949219 147.308594 229.871094 146.28125 C 229.714844 145.097656 229.554688 143.914062 229.320312 142.730469 C 229.238281 142.179688 229.082031 141.625 229.003906 140.996094 C 228.925781 140.363281 228.765625 139.8125 228.609375 139.257812 L 228.609375 139.339844 C 228.371094 138.550781 228.214844 137.839844 227.976562 137.050781 C 227.742188 136.261719 227.425781 135.472656 227.109375 134.683594 L 227.109375 134.605469 L 226.953125 134.289062 L 226.871094 134.210938 C 226.792969 134.050781 226.714844 133.894531 226.636719 133.65625 C 226.476562 133.339844 226.320312 132.945312 226.164062 132.628906 C 225.53125 131.289062 224.820312 130.027344 224.109375 128.683594 C 223.792969 128.132812 223.480469 127.660156 223.164062 127.105469 C 223.003906 126.871094 222.847656 126.632812 222.691406 126.398438 C 222.53125 126.160156 222.296875 125.84375 222.058594 125.527344 C 221.507812 124.738281 220.875 124.03125 220.242188 123.242188 C 219.929688 122.847656 219.613281 122.453125 219.296875 122.058594 C 218.980469 121.664062 218.664062 121.347656 218.269531 120.953125 C 217.402344 120.082031 216.457031 119.214844 215.589844 118.425781 C 215.113281 118.03125 214.71875 117.636719 214.246094 117.242188 C 213.773438 116.847656 213.300781 116.453125 212.828125 116.058594 L 212.667969 115.902344 L 211.328125 114.875 C 210.851562 114.558594 210.378906 114.246094 209.90625 113.929688 L 208.328125 113.0625 L 206.828125 112.351562 C 206.277344 112.035156 205.722656 111.71875 205.171875 111.484375 L 203.4375 110.695312 C 203.121094 110.535156 202.804688 110.457031 202.410156 110.300781 C 202.015625 110.140625 201.542969 109.984375 201.148438 109.90625 C 200.4375 109.667969 199.726562 109.429688 199.015625 109.273438 L 199.097656 109.273438 C 198.070312 108.957031 197.042969 108.722656 195.9375 108.484375 C 194.835938 108.246094 193.886719 108.089844 192.863281 107.929688 L 192.941406 107.929688 C 192.386719 107.851562 191.914062 107.773438 191.363281 107.773438 C 190.808594 107.773438 190.257812 107.695312 189.707031 107.617188 L 188.128906 107.535156 C 187.574219 107.535156 187.101562 107.457031 186.546875 107.457031 L 186.628906 107.457031 C 185.917969 107.457031 185.207031 107.457031 184.417969 107.457031 C 183.628906 107.457031 182.839844 107.457031 182.050781 107.535156 C 181.261719 107.617188 180.472656 107.617188 179.683594 107.695312 C 179.289062 107.695312 178.894531 107.773438 178.5 107.773438 C 178.105469 107.773438 177.710938 107.851562 177.394531 107.851562 C 176.683594 107.929688 175.976562 108.089844 175.265625 108.246094 C 174.554688 108.40625 173.84375 108.5625 173.054688 108.722656 L 173.132812 108.722656 C 172.34375 108.957031 171.476562 109.195312 170.6875 109.429688 C 169.898438 109.667969 169.109375 109.984375 168.398438 110.300781 L 168.476562 110.300781 C 167.453125 110.773438 166.347656 111.246094 165.320312 111.71875 C 164.847656 111.957031 164.296875 112.273438 163.824219 112.507812 C 163.347656 112.746094 162.875 113.0625 162.402344 113.296875 C 161.929688 113.535156 161.613281 113.769531 161.296875 114.007812 C 160.980469 114.246094 160.585938 114.480469 160.269531 114.71875 C 159.957031 114.953125 159.480469 115.269531 159.085938 115.585938 C 158.691406 115.902344 158.296875 116.136719 157.984375 116.375 C 157.667969 116.613281 157.351562 116.847656 157.113281 117.164062 C 156.878906 117.480469 156.484375 117.714844 156.246094 117.953125 C 155.617188 118.503906 155.0625 119.058594 154.433594 119.6875 C 153.800781 120.320312 153.40625 120.792969 152.855469 121.425781 C 152.300781 122.058594 151.828125 122.6875 151.355469 123.320312 C 150.800781 124.03125 150.25 124.738281 149.855469 125.527344 C 149.460938 126.238281 149.066406 126.871094 148.75 127.582031 L 148.199219 128.683594 C 147.644531 128.84375 147.488281 129.160156 147.328125 129.554688 C 147.015625 130.34375 146.699219 131.132812 146.460938 132 C 146.226562 132.789062 146.066406 133.578125 145.910156 134.367188 C 145.75 135.15625 145.59375 135.945312 145.515625 136.734375 C 145.4375 137.523438 145.355469 138.15625 145.277344 138.863281 C 145.199219 139.574219 145.121094 140.207031 145.042969 140.835938 C 145.121094 142.257812 145.121094 143.519531 145.121094 144.78125 C 145.121094 145.257812 145.121094 145.730469 145.121094 146.203125 C 145.121094 146.675781 145.121094 147.230469 145.121094 147.703125 C 145.121094 148.648438 145.199219 149.597656 145.277344 150.542969 C 145.355469 151.253906 145.515625 151.964844 145.671875 152.675781 C 145.832031 153.382812 145.910156 154.09375 146.144531 154.804688 C 146.460938 155.832031 146.699219 156.933594 147.09375 157.960938 C 147.410156 158.988281 147.722656 159.933594 148.117188 160.882812 C 148.511719 161.828125 148.988281 162.773438 149.539062 163.644531 C 149.855469 164.117188 150.171875 164.589844 150.488281 165.0625 L 151.433594 166.640625 C 151.75 167.113281 152.066406 167.667969 152.378906 168.140625 C 152.695312 168.613281 153.089844 169.085938 153.40625 169.5625 C 153.878906 170.191406 154.433594 170.824219 154.90625 171.375 C 155.378906 171.929688 155.929688 172.558594 156.484375 173.191406 C 156.640625 173.347656 156.800781 173.507812 157.035156 173.664062 C 157.195312 173.824219 157.429688 173.980469 157.589844 174.136719 L 158.140625 174.613281 L 158.296875 174.769531 C 158.773438 175.164062 159.246094 175.558594 159.71875 175.953125 C 160.191406 176.347656 160.664062 176.820312 161.140625 177.214844 C 161.769531 177.6875 162.480469 178.242188 163.113281 178.714844 L 164.21875 179.582031 C 164.53125 179.820312 164.925781 180.054688 165.242188 180.371094 C 165.558594 180.6875 165.953125 180.84375 166.347656 181.082031 L 167.453125 181.871094 C 168.164062 182.425781 168.953125 182.898438 169.660156 183.371094 C 170.136719 183.6875 170.609375 184.003906 171.160156 184.316406 L 172.660156 185.265625 C 173.132812 185.5 173.605469 185.816406 174.082031 186.054688 L 175.5 186.84375 C 176.449219 187.394531 177.472656 187.789062 178.421875 188.261719 L 180.316406 189.132812 C 180.710938 189.289062 181.105469 189.445312 181.578125 189.605469 L 182.839844 190.078125 C 183.3125 190.234375 183.707031 190.394531 184.179688 190.550781 C 184.417969 190.628906 184.574219 190.710938 184.8125 190.710938 L 185.445312 190.945312 L 186.390625 191.183594 C 186.785156 191.261719 187.101562 191.339844 187.417969 191.5 L 188.441406 191.734375 C 188.757812 191.8125 189.074219 191.894531 189.46875 191.894531 C 190.257812 191.972656 190.96875 192.050781 191.757812 192.128906 C 192.152344 192.207031 192.46875 192.207031 192.863281 192.207031 C 193.257812 192.207031 193.652344 192.289062 194.046875 192.289062 L 194.203125 192.289062 C 194.675781 192.050781 195.308594 192.050781 195.859375 192.050781 Z M 194.125 192.839844 C 193.652344 192.839844 193.257812 192.839844 192.78125 192.761719 C 192.386719 192.761719 191.992188 192.683594 191.597656 192.683594 L 190.335938 192.523438 L 189.152344 192.367188 L 188.523438 192.289062 C 188.285156 192.289062 188.128906 192.207031 187.890625 192.128906 L 186.707031 191.8125 C 186.3125 191.734375 185.839844 191.578125 185.445312 191.5 L 184.890625 191.339844 C 184.8125 191.339844 184.734375 191.261719 184.65625 191.261719 L 184.339844 191.183594 C 183.867188 191.023438 183.390625 190.867188 182.996094 190.710938 L 181.734375 190.234375 C 181.261719 190.078125 180.789062 189.921875 180.316406 189.761719 C 180.078125 189.683594 179.921875 189.605469 179.683594 189.527344 L 178.972656 189.210938 C 178.183594 188.894531 177.394531 188.5 176.605469 188.183594 C 176.210938 188.027344 175.816406 187.789062 175.421875 187.554688 L 173.054688 186.289062 C 172.660156 186.132812 172.265625 185.894531 171.949219 185.660156 L 170.84375 185.027344 L 169.582031 184.160156 C 168.871094 183.6875 168.082031 183.214844 167.453125 182.738281 L 166.347656 181.949219 C 165.953125 181.714844 165.636719 181.398438 165.242188 181.160156 C 164.847656 180.925781 164.53125 180.6875 164.136719 180.371094 C 163.742188 180.054688 163.429688 179.820312 163.113281 179.582031 C 162.402344 179.03125 161.769531 178.558594 161.058594 178.003906 L 160.191406 177.375 C 159.875 177.136719 159.640625 176.898438 159.324219 176.664062 C 158.773438 176.191406 158.21875 175.714844 157.667969 175.242188 L 157.746094 175.320312 L 157.589844 175.164062 C 157.195312 174.925781 156.878906 174.613281 156.484375 174.296875 C 156.167969 174.058594 155.851562 173.742188 155.535156 173.429688 C 155.222656 173.113281 154.984375 172.796875 154.667969 172.402344 L 153.800781 171.457031 C 153.25 170.824219 152.695312 170.113281 152.222656 169.480469 C 151.75 168.851562 151.277344 168.0625 150.800781 167.351562 C 150.328125 166.640625 149.855469 165.773438 149.382812 165.0625 C 149.144531 164.667969 148.90625 164.351562 148.671875 163.957031 C 148.433594 163.5625 148.277344 163.167969 148.039062 162.773438 C 147.804688 162.378906 147.644531 161.984375 147.488281 161.589844 C 147.328125 161.195312 147.171875 160.800781 147.015625 160.40625 C 146.699219 159.617188 146.460938 158.828125 146.226562 158.039062 C 145.988281 157.25 145.75 156.304688 145.4375 155.4375 C 145.355469 155.042969 145.199219 154.566406 145.121094 154.09375 C 145.042969 153.621094 145.042969 153.226562 144.960938 152.832031 C 144.804688 151.964844 144.648438 151.175781 144.566406 150.308594 C 144.488281 149.4375 144.410156 148.570312 144.410156 147.78125 C 144.410156 146.992188 144.410156 146.046875 144.410156 145.175781 C 144.410156 144.308594 144.410156 143.597656 144.488281 142.808594 C 144.566406 142.019531 144.566406 141.074219 144.648438 140.285156 C 144.726562 139.496094 144.804688 138.46875 144.960938 137.601562 C 145.121094 136.734375 145.199219 135.789062 145.355469 134.917969 C 145.515625 134.050781 145.671875 133.105469 145.910156 132.234375 C 145.988281 131.839844 146.144531 131.367188 146.304688 130.972656 C 146.460938 130.578125 146.621094 130.105469 146.777344 129.710938 C 146.933594 129.316406 147.09375 128.921875 147.328125 128.527344 C 147.566406 128.132812 147.722656 127.738281 147.960938 127.34375 C 148.355469 126.554688 148.75 125.84375 149.222656 125.132812 C 149.617188 124.425781 150.09375 123.714844 150.566406 123.082031 C 151.117188 122.371094 151.671875 121.742188 152.222656 121.03125 C 152.773438 120.398438 153.328125 119.769531 153.878906 119.136719 L 154.828125 118.191406 L 155.773438 117.242188 C 156.089844 116.925781 156.40625 116.613281 156.800781 116.375 C 157.113281 116.058594 157.507812 115.824219 157.902344 115.507812 C 158.296875 115.191406 158.613281 115.035156 159.007812 114.71875 L 160.113281 113.929688 C 160.746094 113.457031 161.453125 112.980469 162.246094 112.585938 C 163.035156 112.191406 163.742188 111.71875 164.53125 111.324219 C 164.925781 111.089844 165.320312 110.929688 165.636719 110.695312 C 165.953125 110.457031 166.425781 110.300781 166.820312 110.140625 C 167.609375 109.746094 168.398438 109.429688 169.265625 109.117188 C 170.136719 108.800781 170.925781 108.5625 171.792969 108.328125 C 172.660156 108.089844 173.449219 107.851562 174.316406 107.617188 C 175.1875 107.378906 175.976562 107.300781 176.84375 107.140625 C 177.710938 106.984375 178.578125 106.90625 179.527344 106.828125 L 182.128906 106.667969 C 182.839844 106.746094 183.707031 106.667969 184.574219 106.667969 C 185.445312 106.667969 186.234375 106.667969 187.101562 106.667969 C 187.96875 106.667969 188.835938 106.746094 189.785156 106.828125 C 190.730469 106.90625 191.519531 106.984375 192.386719 107.0625 C 193.257812 107.140625 194.125 107.300781 194.992188 107.457031 C 195.859375 107.617188 196.648438 107.773438 197.4375 108.011719 C 198.226562 108.246094 199.097656 108.40625 199.964844 108.722656 C 200.832031 109.035156 201.699219 109.273438 202.488281 109.511719 C 203.277344 109.746094 204.066406 110.140625 204.933594 110.535156 C 205.328125 110.695312 205.722656 110.851562 206.039062 111.089844 C 206.355469 111.324219 206.75 111.484375 207.144531 111.71875 C 207.933594 112.191406 208.644531 112.585938 209.433594 112.980469 C 210.144531 113.375 210.851562 113.851562 211.5625 114.324219 C 212.039062 114.71875 212.589844 115.035156 213.0625 115.429688 C 213.773438 115.980469 214.484375 116.53125 215.113281 117.085938 C 215.746094 117.636719 216.378906 118.269531 217.007812 118.820312 C 217.640625 119.375 218.351562 120.003906 218.902344 120.714844 C 219.21875 121.03125 219.535156 121.347656 219.847656 121.742188 C 220.164062 122.136719 220.480469 122.453125 220.71875 122.847656 C 221.269531 123.554688 221.820312 124.1875 222.296875 124.820312 C 222.609375 125.214844 222.847656 125.609375 223.164062 126.003906 C 223.398438 126.316406 223.636719 126.710938 223.796875 127.027344 C 224.269531 127.816406 224.742188 128.527344 225.136719 129.316406 C 225.53125 130.105469 226.003906 130.972656 226.398438 131.761719 C 226.714844 132.472656 227.109375 133.183594 227.347656 133.894531 L 227.347656 133.972656 C 227.347656 133.972656 227.347656 134.050781 227.347656 134.050781 L 227.503906 134.367188 L 227.503906 134.445312 C 227.582031 134.605469 227.582031 134.683594 227.660156 134.839844 C 227.742188 135 227.820312 135.234375 227.898438 135.472656 C 228.054688 135.945312 228.214844 136.339844 228.371094 136.8125 C 228.609375 137.601562 228.84375 138.46875 229.082031 139.339844 C 229.238281 139.8125 229.320312 140.207031 229.398438 140.679688 C 229.476562 141.152344 229.554688 141.546875 229.632812 142.019531 C 229.792969 142.890625 229.949219 143.757812 230.109375 144.625 C 230.265625 145.492188 230.34375 146.363281 230.421875 147.152344 C 230.503906 147.941406 230.582031 148.964844 230.582031 149.914062 C 230.582031 150.386719 230.660156 150.859375 230.660156 151.410156 C 230.660156 151.964844 230.660156 152.28125 230.660156 152.753906 L 230.660156 154.09375 C 230.660156 154.566406 230.660156 155.042969 230.582031 155.515625 C 230.503906 155.988281 230.503906 156.382812 230.421875 156.855469 C 230.34375 157.171875 230.265625 157.566406 230.1875 157.882812 C 230.109375 158.039062 229.949219 158.121094 229.792969 158.121094 C 229.714844 158.121094 229.632812 158.121094 229.632812 158.039062 L 229.632812 157.960938 C 229.632812 157.960938 229.632812 158.039062 229.632812 158.039062 L 229.632812 158.199219 C 229.632812 158.277344 229.554688 158.433594 229.554688 158.515625 C 229.554688 158.515625 229.554688 158.59375 229.554688 158.59375 L 229.554688 158.515625 C 229.554688 158.515625 229.554688 158.59375 229.554688 158.59375 C 229.554688 158.75 229.476562 158.910156 229.476562 159.144531 C 229.476562 159.382812 229.398438 159.539062 229.398438 159.699219 C 229.398438 159.855469 229.320312 160.09375 229.320312 160.328125 C 229.238281 160.566406 229.238281 160.722656 229.160156 160.960938 C 229.160156 161.117188 229.082031 161.277344 229.082031 161.433594 C 229.003906 161.671875 229.003906 161.984375 228.925781 162.300781 C 228.84375 162.617188 228.765625 163.089844 228.6875 163.484375 C 228.609375 163.878906 228.53125 164.195312 228.371094 164.511719 L 228.371094 164.589844 C 228.214844 165.140625 228.136719 165.617188 227.898438 166.167969 C 227.820312 166.484375 227.660156 166.800781 227.582031 167.113281 C 227.503906 167.429688 227.347656 167.746094 227.1875 168.0625 L 227.03125 168.378906 C 226.714844 169.085938 226.476562 169.796875 226.164062 170.429688 C 226.003906 170.746094 225.847656 171.0625 225.609375 171.375 C 225.375 171.691406 225.136719 172.085938 224.898438 172.402344 C 224.503906 173.035156 224.03125 173.664062 223.636719 174.375 C 223.242188 175.085938 222.769531 175.796875 222.296875 176.503906 C 222.296875 176.585938 222.214844 176.664062 222.136719 176.742188 L 222.136719 176.664062 C 221.902344 177.058594 221.664062 177.453125 221.507812 177.847656 C 221.347656 178.242188 221.03125 178.636719 220.796875 179.03125 C 220.558594 179.425781 220.324219 179.742188 220.007812 180.054688 C 219.691406 180.371094 219.535156 180.6875 219.21875 181.003906 C 218.664062 181.554688 218.191406 182.027344 217.5625 182.503906 C 216.929688 183.054688 216.296875 183.6875 215.667969 184.160156 C 214.957031 184.710938 214.246094 185.265625 213.535156 185.738281 C 213.222656 185.976562 212.828125 186.132812 212.511719 186.371094 C 212.195312 186.605469 211.878906 186.765625 211.484375 187 C 210.773438 187.472656 210.144531 187.867188 209.433594 188.261719 C 209.039062 188.5 208.644531 188.738281 208.328125 188.972656 L 207.460938 189.527344 C 207.144531 189.683594 206.75 189.921875 206.433594 190.078125 C 206.117188 190.234375 205.722656 190.394531 205.328125 190.550781 L 204.304688 190.945312 C 203.988281 191.105469 203.59375 191.183594 203.199219 191.261719 C 202.410156 191.5 201.621094 191.734375 200.832031 191.972656 C 200.042969 192.207031 199.253906 192.367188 198.464844 192.523438 C 198.148438 192.601562 197.753906 192.601562 197.4375 192.683594 C 197.121094 192.761719 196.726562 192.761719 196.332031 192.761719 C 195.703125 192.761719 194.992188 192.839844 194.359375 192.839844 Z M 194.125 192.839844 " fill-opacity="1" fill-rule="nonzero"/></g><g fill="#000000" fill-opacity="1"><g transform="translate(164.778568, 167.105965)"><g><path d="M 3.246094 0 L 9.734375 0 L 9.734375 -0.605469 C 7.699219 -1.046875 6.433594 -2.253906 6.433594 -7.976562 L 6.433594 -34.097656 L 20.84375 -10.449219 L 21.613281 -10.449219 L 36.351562 -34.429688 L 36.351562 -6.984375 C 36.351562 -1.925781 35.695312 -0.988281 34.152344 -0.605469 L 34.152344 0 L 41.632812 0 L 41.632812 -0.605469 C 40.09375 -0.988281 39.433594 -1.925781 39.433594 -6.984375 L 39.433594 -30.523438 C 39.433594 -36.242188 40.589844 -37.453125 42.402344 -37.894531 L 42.402344 -38.5 L 37.894531 -38.5 L 36.410156 -36.078125 L 36.351562 -35.96875 L 22.605469 -13.585938 L 7.371094 -38.5 L 2.476562 -38.5 L 2.476562 -37.894531 C 4.289062 -37.453125 5.445312 -36.242188 5.445312 -30.523438 L 5.445312 -6.984375 C 5.445312 -1.925781 4.785156 -0.988281 3.246094 -0.605469 Z M 3.246094 0 "/></g></g></g></svg>